<svg xmlns="http://www.w3.org/2000/svg" viewBox="0 0 111.57 112.49"><g id="Laag_2" data-name="Laag 2"><g id="Laag_1-2" data-name="Laag 1"><path d="M113.89,126v2H74.17v-2a10.75,10.75,0,0,0,10.1-14.5L72,78.58A6.41,6.41,0,0,0,61.42,76.3L23.9,113.72a7,7,0,0,0,.88,10.66,8.89,8.89,0,0,0,2.46,1.24A9.32,9.32,0,0,0,30,126v2H2.32v-2a14.06,14.06,0,0,0,13.21-9.2L47.48,30.06a9.46,9.46,0,0,0,.57-3.18,9.25,9.25,0,0,0-9.27-9.22V15.61h24.8l37.84,101.78A13.29,13.29,0,0,0,113.89,126ZM65.55,61.46l-13.84-37L22.19,104.68a2.92,2.92,0,0,0,4.8,3.06L63.38,71.45A9.44,9.44,0,0,0,65.55,61.46Z" transform="translate(-2.32 -15.61)"/></g></g></svg>