<svg xmlns="http://www.w3.org/2000/svg" viewBox="0 0 512.9 112.51"><defs><style>.cls-1{fill:#fff;}</style></defs><g id="Laag_2" data-name="Laag 2"><g id="Laag_1-2" data-name="Laag 1"><path class="cls-1" d="M130.33,48.47V111.2a16.91,16.91,0,0,1-16.9,16.91V31.51h16.9v0h16.91A16.91,16.91,0,0,0,130.33,48.47Zm0,79.64V111.2a16.91,16.91,0,0,0,16.91,16.91ZM192.05,79.8c0,26.67-12.09,48.3-38.76,48.3,18,0,22.46-21.63,22.46-48.3s-4.45-48.3-22.46-48.3C180,31.5,192.05,53.12,192.05,79.8Z" transform="translate(-2.32 -15.61)"/><path class="cls-1" d="M236.51,128.1c-25.33,0-31.31-11.86-31.31-29.19s6-29.2,31.31-29.2c-10,0-14.41,14.05-14.41,29.2S226.47,128.1,236.51,128.1Zm9.92-16.89v16.91l-9.92,0C242.37,128.1,246.43,123.19,246.43,111.21Zm16.49,16.89h0a16.9,16.9,0,0,1-16.49-16.89V91.75c0-11.75-1-21.37-4.59-21.71l4.59.09h0l-4.59-.1c16.84.35,21.49-2.26,21.49-2.26v50.66c.54,5.82,1.72,9.67,4.08,9.67Z" transform="translate(-2.32 -15.61)"/><path class="cls-1" d="M298.28,128.1V111.2a16.9,16.9,0,0,1-16.91,16.9V48.41a16.91,16.91,0,0,1,16.91-16.9V111.2c0,12,4.05,16.89,9.92,16.89Z" transform="translate(-2.32 -15.61)"/><path class="cls-1" d="M346.22,128.1c-25.33,0-31.31-11.86-31.31-29.19s6-29.2,31.31-29.2c-10,0-14.41,14.05-14.41,29.2S336.18,128.1,346.22,128.1Zm9.92-16.89v16.91l-9.92,0C352.08,128.1,356.14,123.19,356.14,111.21Zm16.49,16.89h0a16.9,16.9,0,0,1-16.49-16.89V91.75c0-11.75-1-21.37-4.59-21.71l4.59.09h0l-4.59-.1c16.84.35,21.49-2.26,21.49-2.26v50.66c.54,5.82,1.72,9.67,4.08,9.67Z" transform="translate(-2.32 -15.61)"/><path class="cls-1" d="M405.78,98.91c0,15.14,4.37,29.19,14.4,29.19-25.32,0-31.31-11.86-31.31-29.19s6-29.2,31.31-29.2C410.14,69.71,405.78,83.76,405.78,98.91Zm39.62,14.15v10.25c-1.64-2.08-8.46,4.8-20.29,4.8C437.06,128.11,445.4,113.06,445.4,113.06Zm0-45.1V88c0-9.34-7.58-12.37-16.16-16.06C429.24,72,441.06,75.78,445.4,68Z" transform="translate(-2.32 -15.61)"/><path class="cls-1" d="M490,128.1c-25.32,0-31.31-11.86-31.31-29.19s6-29.2,31.31-29.2c-10,0-14.4,14.05-14.4,29.2S480,128.1,490,128.1Zm8.52-56.73a29.1,29.1,0,0,1,12.16,9.93c2.9,4.32,4.53,9.73,4.53,16.51H485.89C511,97.81,509.28,79.41,498.53,71.37Zm16.7,41.69v10.25c-1.65-2.08-8.46,4.79-20.3,4.79C506.88,128.1,515.23,113.06,515.23,113.06Z" transform="translate(-2.32 -15.61)"/><path class="cls-1" d="M113.89,126v2H74.17v-2a10.75,10.75,0,0,0,10.1-14.5L72,78.58A6.41,6.41,0,0,0,61.42,76.3L23.9,113.72a7,7,0,0,0,.88,10.66,8.89,8.89,0,0,0,2.46,1.24A9.32,9.32,0,0,0,30,126v2H2.32v-2a14.06,14.06,0,0,0,13.21-9.2L47.48,30.06a9.46,9.46,0,0,0,.57-3.18,9.25,9.25,0,0,0-9.27-9.22V15.61h24.8l37.84,101.78A13.29,13.29,0,0,0,113.89,126ZM65.55,61.46l-13.84-37L22.19,104.68a2.92,2.92,0,0,0,4.8,3.06L63.38,71.45A9.44,9.44,0,0,0,65.55,61.46Z" transform="translate(-2.32 -15.61)"/></g></g></svg>