<svg xmlns="http://www.w3.org/2000/svg" viewBox="0 0 326.39 115.71"><g id="Laag_2" data-name="Laag 2"><g id="Laag_1-2" data-name="Laag 1"><path d="M5.47,80.16V21.41C5.47,13.7,4.26,9.56.41,7.33H26.66a7.11,7.11,0,0,0-4.58,6.79v68.1c0,7,1,10.47,5,12.44H0C5,91.78,5.47,86.16,5.47,80.16ZM50.59,30.9c0-9.52-1.49-20.23-11.77-23.46,14.47.73,29.76,5.41,29.76,22,0,9.86-5.5,17.12-15.9,21-4.11,1.52-7.64,2.13-16.81,2.4C46.55,50.46,50.59,43.93,50.59,30.9Z" transform="translate(0 -5.26)"/><path d="M77,85.39V46.17c0-4.7-.86-7.47-3.4-9.26H90.49V85.8c0,4.19.93,7,3,8.86H73.74C76.17,93,77,90.41,77,85.39ZM75.8,13.15a7.83,7.83,0,1,1,15.65,0,7.65,7.65,0,0,1-7.89,7.76A7.51,7.51,0,0,1,75.8,13.15Z" transform="translate(0 -5.26)"/><path d="M120.7,121H98.78c2.44-1.76,3.32-4.55,3.32-9.13V44.42c0-4.61-1-7.55-3.47-9.4h16.64l.26,71.46C115.53,112.33,116.32,117.91,120.7,121Zm37.49-59.63c0,20.18-9.25,33.22-23.57,33.22a13.22,13.22,0,0,1-8-2.13,11.81,11.81,0,0,0,2.3.24c13,0,14.54-16.7,14.54-29.26,0-6.89,0-27.88-13.3-27.88a12.53,12.53,0,0,0-4.11.72c2.7-2,5.86-2.88,10-2.88C150.35,33.37,158.19,43.3,158.19,61.34Z" transform="translate(0 -5.26)"/><path d="M196.64,90.43a17.67,17.67,0,0,0,9.87-2.81c-5.06,5.12-10.39,7-18,7-14.86,0-25.23-12.3-25.23-29.91,0-15.92,7.47-27.42,19.19-30.56-4.93,4.17-5.75,13.45-5.75,22.58C176.74,56.77,172,90.43,196.64,90.43ZM200.86,59h-8.71v-.57h6.77s1.93.15,1.94-2.39V53.88c0-7.55,0-10.68-1.51-13.87a16.89,16.89,0,0,0-4.14-6.08,17.39,17.39,0,0,1,9.51,5.35c3.91,4.33,6.32,11,7.16,19.74h-11Z" transform="translate(0 -5.26)"/><path d="M244,91.4a13.65,13.65,0,0,0,4.13-.62,20.53,20.53,0,0,1-12.66,3.88c-10,0-15.46-6.07-15.46-17.11V44.39c0-4.78-.78-7.62-3-9.4h16.48v43.1C233.43,86.92,237,91.4,244,91.4Zm31.4-.67-2.13.23a114.29,114.29,0,0,0-11.48,1.63c-.41.08-1.49.34-2.36.56-.39.1-.78.2-1.17.32l-.14,0V44.11c0-4.44-.93-7.34-3.21-9.12h16.65V81.12C271.53,85.9,272.7,89,275.37,90.73Z" transform="translate(0 -5.26)"/><path d="M300.92,94.66H280.49c2.4-1.74,3.29-4.42,3.29-8.72V46.17c0-4.58-.9-7.46-3.23-9.26h16.13l.55,46C297.23,89,298.16,92.62,300.92,94.66Zm25.47-51.37c0,4-2.28,6.51-5.82,6.51-2.31,0-3.85-.6-5.83-3.87-.69-1.12-2.77-4.52-6.28-4.52a8.52,8.52,0,0,0-2.67.42c4.68-5.35,8.32-6.58,12.3-6.58C323,35.25,326.39,38.55,326.39,43.29Z" transform="translate(0 -5.26)"/></g></g></svg>