<svg id="Laag_1" data-name="Laag 1" xmlns="http://www.w3.org/2000/svg" viewBox="0 0 1920 1080"><path d="M586,449V390.23c0-7.71-1.2-11.85-5.05-14.08h26.24a7.13,7.13,0,0,0-4.58,6.79v68.11c0,7,1,10.46,5,12.43h-27.1C585.5,460.61,586,455,586,449Zm45.13-49.26c0-9.53-1.5-20.24-11.77-23.47,14.47.73,29.75,5.42,29.75,21.95,0,9.86-5.5,17.12-15.9,21-4.11,1.53-7.63,2.14-16.8,2.4C627,419.28,631.09,412.75,631.09,399.73Z"/><path d="M657.54,454.22V415c0-4.71-.87-7.48-3.4-9.27H671v48.89c0,4.2.93,7.05,3,8.86h-19.8C656.66,461.82,657.54,459.23,657.54,454.22ZM656.3,382A7.83,7.83,0,1,1,672,382a7.65,7.65,0,0,1-7.9,7.75A7.5,7.5,0,0,1,656.3,382Z"/><path d="M701.2,489.8H679.27c2.44-1.77,3.32-4.55,3.32-9.13V413.25c0-4.61-1-7.55-3.46-9.4h16.63L696,475.3C696,481.16,696.81,486.74,701.2,489.8Zm37.48-59.63c0,20.18-9.25,33.21-23.57,33.21a13.22,13.22,0,0,1-8-2.13,11.18,11.18,0,0,0,2.31.24c13,0,14.53-16.69,14.53-29.25,0-6.9,0-27.88-13.29-27.88a12.33,12.33,0,0,0-4.12.72c2.7-2,5.86-2.88,10-2.88C730.85,402.2,738.68,412.13,738.68,430.17Z"/><path d="M777.14,459.26a17.72,17.72,0,0,0,9.87-2.81c-5.06,5.11-10.4,7-18,7-14.85,0-25.23-12.3-25.23-29.9,0-15.93,7.48-27.42,19.19-30.56-4.92,4.17-5.74,13.45-5.74,22.58C757.24,425.6,752.53,459.26,777.14,459.26Zm4.21-31.41h-8.71v-.58h6.78s1.93.15,1.93-2.39v-2.17c0-7.56,0-10.68-1.51-13.88a16.89,16.89,0,0,0-4.14-6.08,17.52,17.52,0,0,1,9.51,5.35c3.92,4.34,6.32,11,7.17,19.75h-11Z"/><path d="M824.47,460.22a13.32,13.32,0,0,0,4.12-.62,20.42,20.42,0,0,1-12.65,3.88c-10,0-15.47-6.07-15.47-17.11V413.22c0-4.79-.77-7.62-3-9.41h16.48v43.11C813.92,455.75,817.47,460.22,824.47,460.22Zm31.39-.67-2.13.24a114.93,114.93,0,0,0-11.47,1.62c-.41.09-1.5.34-2.37.56l-1.17.32-.13,0v-49.4c0-4.45-.93-7.34-3.22-9.13H852V450C852,454.72,853.19,457.82,855.86,459.55Z"/><path d="M881.42,463.48H861c2.4-1.74,3.28-4.41,3.28-8.71V415c0-4.58-.89-7.47-3.23-9.27h16.14l.54,46C877.72,457.87,878.65,461.44,881.42,463.48Zm25.47-51.37c0,3.95-2.29,6.51-5.82,6.51-2.32,0-3.86-.6-5.83-3.86-.7-1.13-2.77-4.53-6.29-4.53a8.82,8.82,0,0,0-2.67.42c4.69-5.34,8.33-6.57,12.31-6.57C903.48,404.08,906.89,407.38,906.89,412.11Z"/></svg>