<svg xmlns="http://www.w3.org/2000/svg" width="338.12" height="115.96" viewBox="0 0 338.12 115.96">
  <g id="Laag_2" data-name="Laag 2" transform="translate(0 0.22)">
    <g id="Laag_1" data-name="Laag 1">
      <path id="Path_1" data-name="Path 1" d="M5.47,80.16V21.41C5.47,13.7,4.26,9.56.41,7.33H26.66a7.11,7.11,0,0,0-4.58,6.79v68.1c0,7,1,10.47,5,12.44H0C5,91.78,5.47,86.16,5.47,80.16ZM50.59,30.9c0-9.52-1.49-20.23-11.77-23.46,14.47.73,29.76,5.41,29.76,22,0,9.86-5.5,17.12-15.9,21C48.57,51.92,45,52.53,35.87,52.8,46.55,50.46,50.59,43.93,50.59,30.9Z" transform="translate(0 -5.26)" fill="#fff"/>
      <path id="Path_2" data-name="Path 2" d="M79.39,85.39V46.17c0-4.7-.87-7.47-3.4-9.26H92.84V85.8c0,4.19.93,7,3,8.86H76.08C78.51,93,79.39,90.41,79.39,85.39ZM78.15,13.15a7.83,7.83,0,1,1,15.65,0,7.65,7.65,0,0,1-7.9,7.76,7.5,7.5,0,0,1-7.75-7.76Z" transform="translate(0 -5.26)" fill="#fff"/>
      <path id="Path_3" data-name="Path 3" d="M125.4,121H103.47c2.44-1.76,3.32-4.55,3.32-9.13V44.42c0-4.61-1-7.55-3.47-9.4H120l.27,71.46C120.23,112.33,121,117.91,125.4,121Zm37.48-59.63c0,20.18-9.25,33.22-23.57,33.22a13.22,13.22,0,0,1-7.95-2.13,11.831,11.831,0,0,0,2.31.24c13,0,14.53-16.7,14.53-29.26,0-6.89,0-27.88-13.29-27.88a12.59,12.59,0,0,0-4.12.72c2.7-2,5.86-2.88,10-2.88,14.21-.03,22.09,9.9,22.09,27.94Z" transform="translate(0 -5.26)" fill="#fff"/>
      <path id="Path_4" data-name="Path 4" d="M197.36,91.4a13.58,13.58,0,0,0,4.12-.62,20.48,20.48,0,0,1-12.65,3.88c-10,0-15.46-6.07-15.46-17.11V44.39c0-4.78-.78-7.62-3-9.4h16.47v43.1C186.81,86.92,190.36,91.4,197.36,91.4Zm31.4-.67-2.13.23a114.293,114.293,0,0,0-11.48,1.63c-.41.08-1.49.34-2.37.56-.39.1-.78.2-1.16.32h-.14V44.11c0-4.44-.93-7.34-3.21-9.12h16.65V81.12C224.92,85.9,226.09,89,228.76,90.73Z" transform="translate(0 -5.26)" fill="#fff"/>
      <path id="Path_5" data-name="Path 5" d="M269.57,90.43a17.67,17.67,0,0,0,9.87-2.81c-5.06,5.12-10.39,7-18,7-14.86,0-25.23-12.3-25.23-29.91,0-15.92,7.47-27.42,19.18-30.56-4.92,4.17-5.74,13.45-5.74,22.58C249.67,56.77,245,90.43,269.57,90.43ZM273.79,59h-8.71v-.57h6.77s1.93.15,1.94-2.39V53.88c0-7.55,0-10.68-1.51-13.87a16.92,16.92,0,0,0-4.15-6.08,17.39,17.39,0,0,1,9.52,5.35c3.91,4.33,6.32,11,7.16,19.74h-11Z" transform="translate(0 -5.26)" fill="#fff"/>
      <path id="Path_6" data-name="Path 6" d="M312.65,94.66H292.22c2.4-1.74,3.29-4.42,3.29-8.72V46.17c0-4.58-.9-7.46-3.23-9.26h16.13l.55,46C309,89,309.89,92.62,312.65,94.66Zm25.47-51.37c0,4-2.28,6.51-5.82,6.51-2.31,0-3.85-.6-5.83-3.87-.69-1.12-2.77-4.52-6.28-4.52a8.52,8.52,0,0,0-2.67.42c4.68-5.35,8.32-6.58,12.3-6.58,4.89,0,8.3,3.3,8.3,8.04Z" transform="translate(0 -5.26)" fill="#fff"/>
    </g>
  </g>
</svg>
